<?xml version="1.0" standalone="no"?>
<!DOCTYPE svg PUBLIC "-//W3C//DTD SVG 20010904//EN"
 "http://www.w3.org/TR/2001/REC-SVG-20010904/DTD/svg10.dtd">
<svg version="1.0" xmlns="http://www.w3.org/2000/svg"
 width="1599.000000pt" height="1599.000000pt" viewBox="0 0 1599.000000 1599.000000"
 preserveAspectRatio="xMidYMid meet">

<g transform="translate(0.000000,1599.000000) scale(0.100000,-0.100000)"
fill="#000000" stroke="none">
<path d="M12977 14799 c-74 -17 -152 -62 -213 -124 -108 -107 -149 -219 -142
-379 8 -161 67 -277 185 -368 84 -63 158 -90 262 -94 46 -2 85 -5 86 -6 1 -2
17 -73 35 -158 102 -479 161 -906 205 -1474 10 -129 20 -205 28 -215 22 -26
92 -151 135 -241 146 -303 237 -660 262 -1034 l11 -159 44 -81 c23 -44 51
-103 60 -129 10 -26 21 -44 25 -40 12 13 30 588 30 950 0 1001 -95 1838 -299
2644 -27 107 -66 248 -87 314 -20 66 -51 168 -69 227 -36 119 -73 185 -143
250 -116 108 -269 151 -415 117z"/>
<path d="M8462 13525 c-30 -22 -52 -67 -52 -109 0 -39 37 -91 73 -102 256 -79
413 -333 458 -739 20 -189 0 -547 -41 -733 -15 -65 -7 -112 23 -140 12 -12 63
-33 112 -47 284 -83 460 -269 543 -574 24 -89 26 -111 26 -311 0 -170 -4 -231
-18 -290 -36 -155 -33 -184 27 -220 66 -41 144 -15 166 53 21 64 51 224 61
326 49 497 -101 863 -450 1096 -52 35 -130 78 -174 97 l-78 33 6 45 c3 25 10
79 15 120 18 136 23 371 12 507 -42 508 -231 839 -555 967 -91 36 -126 41
-154 21z"/>
<path d="M10910 12789 c-112 -19 -148 -31 -173 -57 -46 -49 -43 -132 5 -174
26 -23 48 -22 228 7 249 39 416 -34 525 -229 19 -35 55 -116 78 -180 53 -143
69 -166 123 -173 33 -4 55 2 117 32 94 46 165 54 257 31 255 -65 396 -333 351
-669 -11 -80 -10 -92 6 -125 10 -20 29 -42 43 -49 14 -7 55 -26 92 -44 139
-65 223 -184 243 -344 10 -76 23 -102 62 -120 41 -20 81 -15 123 15 42 30 53
74 40 154 -31 198 -137 361 -301 466 l-81 52 5 52 c6 69 -10 247 -30 321 -8
33 -35 102 -60 154 -38 82 -55 106 -131 182 -93 91 -184 145 -295 175 -66 18
-228 18 -294 1 -29 -8 -56 -11 -60 -8 -5 3 -16 25 -25 49 -59 153 -184 321
-292 391 -106 69 -195 93 -361 97 -77 1 -165 -1 -195 -7z"/>
<path d="M5598 12470 c-264 -41 -495 -169 -631 -349 -108 -142 -184 -312 -246
-551 -32 -121 -14 -113 -181 -90 -189 25 -395 -19 -566 -122 -90 -54 -196
-140 -242 -197 -20 -25 -39 -48 -42 -51 -8 -7 -64 -98 -90 -144 -37 -67 -76
-177 -101 -281 -21 -89 -24 -123 -24 -305 1 -173 4 -223 24 -320 13 -68 19
-116 13 -118 -25 -8 -139 -94 -192 -146 -128 -122 -228 -292 -270 -456 -29
-115 -39 -310 -17 -362 20 -49 60 -73 116 -72 37 1 49 7 73 33 27 30 28 35 28
136 0 312 148 553 426 694 34 17 67 38 74 46 23 28 22 88 -4 188 -35 136 -49
242 -49 382 -1 285 78 492 252 665 72 72 101 93 181 131 133 64 175 74 315 74
106 -1 129 -4 195 -28 131 -48 144 -51 182 -33 18 9 39 25 45 35 7 11 26 84
44 163 118 541 299 767 674 845 86 17 399 24 486 10 95 -16 153 67 110 155
-34 72 -37 73 -296 75 -126 1 -256 -2 -287 -7z"/>
<path d="M6120 10948 c-59 -29 -234 -205 -292 -293 -65 -100 -121 -216 -152
-315 -33 -102 -58 -279 -54 -378 l3 -73 -88 -30 c-128 -42 -215 -87 -308 -156
-204 -152 -327 -371 -360 -641 -20 -164 -1 -260 101 -506 22 -54 47 -136 56
-181 15 -76 15 -94 0 -236 -22 -206 -20 -270 9 -414 66 -328 200 -579 432
-811 127 -127 318 -254 381 -254 63 0 120 82 103 147 -8 29 -26 44 -173 146
-124 85 -239 204 -324 334 -143 222 -220 539 -198 822 5 64 9 168 8 231 -1
121 -9 154 -81 310 -91 198 -109 304 -77 457 35 170 140 330 282 429 107 75
216 118 352 139 59 10 93 28 110 59 15 28 15 30 5 221 -8 156 12 275 68 405
60 138 96 190 223 315 139 137 149 158 115 228 -15 31 -30 46 -54 55 -42 15
-34 16 -87 -10z"/>
<path d="M7285 10650 c-113 -23 -264 -111 -322 -188 -77 -102 -15 -232 109
-232 37 0 50 6 92 46 135 125 267 130 398 15 55 -49 79 -61 118 -61 73 0 129
52 138 128 6 58 -13 92 -84 154 -137 116 -303 167 -449 138z"/>
<path d="M11310 10644 c-149 -40 -300 -147 -329 -233 -15 -47 2 -106 44 -148
29 -29 39 -33 87 -33 50 1 56 4 108 52 135 125 261 124 408 -5 54 -48 57 -49
109 -45 81 7 133 65 133 148 0 35 -7 48 -47 91 -140 150 -344 218 -513 173z"/>
<path d="M12714 10205 c-40 -21 -64 -63 -64 -115 0 -39 5 -48 72 -114 90 -89
140 -166 168 -259 19 -62 22 -88 18 -188 -7 -172 3 -188 148 -223 193 -47 320
-192 331 -379 6 -88 -7 -137 -73 -287 l-29 -65 -1 -230 c0 -251 -3 -266 -64
-387 -54 -106 -123 -191 -210 -258 -25 -19 -47 -38 -50 -41 -3 -3 -19 -13 -37
-22 -68 -35 -91 -103 -58 -167 16 -32 61 -60 94 -60 34 0 72 21 168 93 177
131 293 300 363 527 29 98 40 189 40 356 0 138 2 159 30 250 58 192 61 334 10
485 -19 54 -79 159 -122 210 -52 61 -242 179 -291 179 -10 0 -16 28 -25 113
-18 184 -89 341 -215 474 -104 110 -149 134 -203 108z"/>
<path d="M7270 9844 c-140 -38 -244 -132 -296 -269 -28 -73 -26 -221 4 -294
49 -117 143 -209 255 -248 70 -24 213 -24 284 0 164 57 283 226 283 402 0 277
-264 480 -530 409z"/>
<path d="M11326 9849 c-21 -5 -61 -20 -87 -34 -305 -153 -321 -576 -29 -748
181 -106 434 -55 553 111 62 86 81 145 81 252 0 111 -22 178 -84 261 -96 128
-279 194 -434 158z"/>
<path d="M4046 9359 c-69 -16 -135 -69 -156 -123 -9 -23 -112 -534 -149 -741
-64 -352 -163 -1007 -186 -1237 -4 -38 -11 -68 -15 -68 -15 0 -109 110 -139
163 -57 100 -75 221 -47 322 14 52 62 145 80 157 17 11 13 102 -4 120 -28 27
-58 38 -106 38 -41 0 -51 -5 -82 -37 -41 -44 -104 -173 -122 -252 -8 -34 -11
-92 -8 -160 5 -90 10 -118 39 -186 40 -97 100 -191 171 -266 58 -60 139 -129
177 -149 22 -11 23 -16 17 -75 -53 -519 -57 -1274 -11 -1850 27 -327 86 -756
135 -975 10 -47 24 -118 30 -158 30 -185 164 -341 334 -387 83 -23 208 -17
286 14 76 29 166 104 217 179 58 86 83 172 83 281 0 148 -45 259 -145 357 -74
73 -176 121 -269 126 -48 2 -60 7 -66 23 -10 29 -48 419 -61 635 -13 207 -15
868 -4 1040 6 97 9 111 24 106 9 -2 58 -21 110 -41 188 -73 447 -125 622 -125
79 0 82 1 115 34 37 37 45 82 22 130 -19 44 -49 54 -184 66 -231 20 -468 78
-618 151 -36 18 -66 37 -67 43 -7 89 39 608 91 1021 53 429 146 992 241 1455
45 216 40 260 -32 318 -67 54 -212 77 -323 51z"/>
<path d="M8457 8266 c-47 -46 -82 -113 -115 -215 -24 -77 -27 -101 -27 -231 0
-127 3 -154 24 -215 27 -78 85 -200 100 -210 6 -3 25 8 42 24 75 72 339 231
384 231 8 0 15 4 15 9 0 5 24 15 53 21 28 7 60 17 69 22 30 15 232 44 273 39
6 0 154 -3 330 -5 293 -3 326 -5 395 -26 41 -12 94 -27 118 -32 23 -6 42 -15
42 -20 0 -4 7 -8 16 -8 15 0 214 -97 224 -110 3 -3 39 -30 80 -60 41 -29 83
-62 92 -73 23 -25 33 -17 72 61 69 139 81 191 81 357 -1 137 -3 157 -28 233
-34 100 -87 193 -126 222 l-30 20 -88 -57 c-223 -144 -533 -235 -853 -250
-384 -17 -814 97 -1066 284 -17 13 -34 23 -37 23 -4 0 -22 -15 -40 -34z"/>
<path d="M12593 7195 l-36 -36 9 -62 c17 -128 2 -192 -63 -263 -58 -64 -200
-124 -293 -124 -81 0 -132 -47 -144 -131 -25 -174 -281 -225 -658 -132 -124
31 -149 27 -185 -26 -40 -59 -22 -135 38 -167 105 -54 437 -90 596 -64 199 32
324 109 396 245 24 46 33 54 65 60 100 19 223 76 315 148 51 40 123 143 149
214 15 42 21 83 21 148 1 101 -14 157 -51 198 -21 22 -34 27 -75 27 -43 0 -53
-4 -84 -35z"/>
<path d="M11439 5376 c-6 -6 -198 -33 -291 -41 -50 -4 -85 -13 -99 -23 l-20
-17 80 -330 c138 -566 138 -568 125 -617 -7 -24 -67 -205 -134 -403 -67 -198
-171 -504 -230 -680 -60 -176 -186 -547 -280 -825 -153 -450 -171 -511 -167
-557 5 -66 47 -136 106 -178 l43 -30 127 5 c129 5 1006 7 1096 2 28 -1 200 1
382 4 l333 6 -5 22 c-41 188 -76 276 -160 401 -184 276 -482 435 -815 435
-130 0 -230 -18 -355 -65 -49 -19 -92 -32 -94 -29 -3 2 14 60 38 127 24 67 49
142 56 167 24 82 322 954 358 1045 19 50 57 147 85 216 108 268 120 381 60
584 -19 66 -73 270 -118 453 -68 270 -86 332 -100 332 -9 0 -19 -2 -21 -4z"/>
<path d="M6380 5228 c0 -6 29 -127 64 -267 35 -141 74 -305 86 -366 12 -60 28
-131 36 -157 l15 -48 -95 -282 c-108 -323 -446 -1323 -603 -1783 -136 -404
-137 -405 -129 -458 9 -59 55 -130 107 -164 43 -28 44 -28 168 -23 132 5 1005
7 1101 2 30 -1 202 0 383 4 244 5 327 9 327 18 0 25 -42 173 -67 236 -89 222
-258 402 -486 514 -132 66 -223 87 -397 93 -162 6 -248 -9 -397 -67 -42 -16
-79 -28 -81 -25 -2 2 14 57 36 122 22 65 121 357 220 648 99 292 201 582 227
645 26 63 70 180 98 260 49 141 51 148 51 255 0 91 -5 124 -27 190 -14 44 -44
152 -66 240 -23 87 -44 162 -49 165 -4 4 -36 17 -72 30 -88 31 -280 129 -363
185 -70 47 -87 53 -87 33z"/>
</g>
</svg>
